<?xml version="1.0" encoding="utf-8"?>
<!-- Generator: Adobe Illustrator 18.0.0, SVG Export Plug-In . SVG Version: 6.00 Build 0)  -->
<!DOCTYPE svg PUBLIC "-//W3C//DTD SVG 1.1//EN" "http://www.w3.org/Graphics/SVG/1.1/DTD/svg11.dtd">
<svg version="1.1" id="Layer_1" xmlns="http://www.w3.org/2000/svg" xmlns:xlink="http://www.w3.org/1999/xlink" x="0px" y="0px"
	 viewBox="0 0 16 16" enable-background="new 0 0 16 16" xml:space="preserve">
<g>
	<path fill="#7F7F7F" d="M11.1,4.9c-0.2-0.2-0.5-0.2-0.7,0L8.3,7c-0.9-2.5-3-2.2-3-2.2C5,4.8,4.8,5.1,4.8,5.4c0,0.3,0.3,0.5,0.6,0.4
		c0.2,0,1.6-0.1,2.1,2l-2.5,2.5c-0.2,0.2-0.2,0.5,0,0.7c0.1,0.1,0.2,0.1,0.4,0.1s0.3,0,0.4-0.1L7.7,9c0.7,2,2.2,2.2,2.8,2.2
		c0.1,0,0.2,0,0.2,0c0.3,0,0.5-0.3,0.4-0.6s-0.3-0.5-0.6-0.4c-0.1,0-1.6,0.2-2.1-2l2.5-2.5C11.2,5.5,11.2,5.1,11.1,4.9z"/>
	<path fill="#7F7F7F" d="M1.8,1.5H3c0.3,0,0.5-0.2,0.5-0.5S3.3,0.5,3,0.5H1.8c-0.7,0-1.3,0.6-1.3,1.3v12.5c0,0.7,0.6,1.3,1.3,1.3H3
		c0.3,0,0.5-0.2,0.5-0.5S3.3,14.5,3,14.5H1.8c-0.1,0-0.3-0.1-0.3-0.3V1.8C1.5,1.6,1.6,1.5,1.8,1.5z"/>
	<path fill="#7F7F7F" d="M14.2,0.5H13c-0.3,0-0.5,0.2-0.5,0.5s0.2,0.5,0.5,0.5h1.2c0.1,0,0.3,0.1,0.3,0.3v12.5
		c0,0.1-0.1,0.3-0.3,0.3H13c-0.3,0-0.5,0.2-0.5,0.5s0.2,0.5,0.5,0.5h1.2c0.7,0,1.3-0.6,1.3-1.3V1.8C15.5,1.1,14.9,0.5,14.2,0.5z"/>
</g>
</svg>
