<?xml version="1.0" encoding="utf-8"?>
<!-- Generator: Adobe Illustrator 18.0.0, SVG Export Plug-In . SVG Version: 6.00 Build 0)  -->
<!DOCTYPE svg PUBLIC "-//W3C//DTD SVG 1.1//EN" "http://www.w3.org/Graphics/SVG/1.1/DTD/svg11.dtd">
<svg version="1.1" id="Layer_1" xmlns="http://www.w3.org/2000/svg" xmlns:xlink="http://www.w3.org/1999/xlink" x="0px" y="0px"
	 viewBox="0 0 16 16" enable-background="new 0 0 16 16" xml:space="preserve">
<g>
	<path fill="none" d="M15.4,3.5H0.6c0,0,0,0,0,0v11.8c0,0,0,0.1,0.1,0.1h14.7c0,0,0.1,0,0.1-0.1L15.4,3.5
		C15.4,3.5,15.4,3.5,15.4,3.5z M5.4,11.7c0.2,0.2,0.1,0.5-0.1,0.7c-0.1,0.1-0.2,0.1-0.3,0.1c-0.1,0-0.3-0.1-0.4-0.2L2.6,9.8
		C2.4,9.6,2.4,9.2,2.6,9l2.1-2.5c0.2-0.2,0.5-0.2,0.7-0.1c0.2,0.2,0.2,0.5,0.1,0.7L3.6,9.4L5.4,11.7z M9.3,6.1l-1.7,7
		c-0.1,0.2-0.3,0.4-0.5,0.4c0,0-0.1,0-0.1,0c-0.3-0.1-0.4-0.3-0.4-0.6l1.7-7C8.4,5.6,8.7,5.4,9,5.5C9.2,5.6,9.4,5.9,9.3,6.1z
		 M13.4,9.8l-2.1,2.5c-0.1,0.1-0.2,0.2-0.4,0.2c-0.1,0-0.2,0-0.3-0.1c-0.2-0.2-0.2-0.5-0.1-0.7l1.8-2.3l-1.8-2.3
		c-0.2-0.2-0.1-0.5,0.1-0.7c0.2-0.2,0.5-0.1,0.7,0.1L13.4,9C13.6,9.2,13.6,9.5,13.4,9.8z"/>
	<path fill="none" d="M0.6,2.5h14.8c0,0,0,0,0,0V1c0,0,0-0.1-0.1-0.1H0.7c0,0-0.1,0-0.1,0.1L0.6,2.5C0.6,2.5,0.6,2.5,0.6,2.5z"/>
	<path fill="#7F7F7F" d="M15.3,0H0.7C0.1,0-0.4,0.5-0.4,1v14.3c0,0.6,0.5,1.1,1.1,1.1h14.7c0.6,0,1.1-0.5,1.1-1.1V1
		C16.4,0.5,15.9,0,15.3,0z M0.7,1h14.7c0,0,0.1,0,0.1,0.1v1.5c0,0,0,0,0,0H0.6c0,0,0,0,0,0L0.7,1C0.6,1,0.6,1,0.7,1z M15.3,15.4H0.7
		c0,0-0.1,0-0.1-0.1V3.5c0,0,0,0,0,0h14.8c0,0,0,0,0,0L15.3,15.4C15.4,15.3,15.4,15.4,15.3,15.4z"/>
	<path fill="#7F7F7F" d="M5.4,6.4C5.2,6.2,4.8,6.3,4.7,6.5L2.6,9c-0.2,0.2-0.2,0.5,0,0.7l2.1,2.5c0.1,0.1,0.2,0.2,0.4,0.2
		c0.1,0,0.2,0,0.3-0.1c0.2-0.2,0.2-0.5,0.1-0.7L3.6,9.4l1.8-2.3C5.6,6.9,5.6,6.6,5.4,6.4z"/>
	<path fill="#7F7F7F" d="M11.3,6.5c-0.2-0.2-0.5-0.2-0.7-0.1c-0.2,0.2-0.2,0.5-0.1,0.7l1.8,2.3l-1.8,2.3c-0.2,0.2-0.1,0.5,0.1,0.7
		c0.1,0.1,0.2,0.1,0.3,0.1c0.1,0,0.3-0.1,0.4-0.2l2.1-2.5c0.2-0.2,0.2-0.5,0-0.7L11.3,6.5z"/>
	<path fill="#7F7F7F" d="M9,5.5C8.7,5.4,8.4,5.6,8.4,5.9l-1.7,7c-0.1,0.3,0.1,0.5,0.4,0.6c0,0,0.1,0,0.1,0c0.2,0,0.4-0.2,0.5-0.4
		l1.7-7C9.4,5.9,9.2,5.6,9,5.5z"/>
</g>
</svg>
