<?xml version="1.0" encoding="utf-8"?>
<!-- Generator: Adobe Illustrator 18.0.0, SVG Export Plug-In . SVG Version: 6.00 Build 0)  -->
<!DOCTYPE svg PUBLIC "-//W3C//DTD SVG 1.1//EN" "http://www.w3.org/Graphics/SVG/1.1/DTD/svg11.dtd">
<svg version="1.1" id="Layer_1" xmlns="http://www.w3.org/2000/svg" xmlns:xlink="http://www.w3.org/1999/xlink" x="0px" y="0px"
	 viewBox="0 0 16 16" enable-background="new 0 0 16 16" xml:space="preserve">
<g>
	<path fill="none" d="M8.5,9.6C8.3,9.5,8.2,9.5,8,9.5s-0.3,0-0.5,0.1c-0.6,0.2-1,0.8-1,1.4s0.4,1.2,1,1.4c0.2,0.1,0.3,0.1,0.5,0.1
		s0.3,0,0.5-0.1c0.6-0.2,1-0.8,1-1.4S9.1,9.8,8.5,9.6z"/>
	<path fill="none" d="M3.5,5.6C3.3,5.5,3.2,5.5,3,5.5s-0.3,0-0.5,0.1c-0.6,0.2-1,0.8-1,1.4s0.4,1.2,1,1.4C2.7,8.5,2.8,8.5,3,8.5
		s0.3,0,0.5-0.1c0.6-0.2,1-0.8,1-1.4S4.1,5.8,3.5,5.6z"/>
	<path fill="none" d="M13.5,3.6c-0.2-0.1-0.3-0.1-0.5-0.1s-0.3,0-0.5,0.1c-0.6,0.2-1,0.8-1,1.4s0.4,1.2,1,1.4
		c0.2,0.1,0.3,0.1,0.5,0.1s0.3,0,0.5-0.1c0.6-0.2,1-0.8,1-1.4S14.1,3.8,13.5,3.6z"/>
	<path fill="#7F7F7F" d="M12.5,7.4V16c0,0.3,0.2,0.5,0.5,0.5s0.5-0.2,0.5-0.5V7.4c-0.2,0-0.3,0.1-0.5,0.1S12.7,7.5,12.5,7.4z"/>
	<path fill="#7F7F7F" d="M13.5,2.6V0c0-0.3-0.2-0.5-0.5-0.5S12.5-0.3,12.5,0v2.6c0.2,0,0.3-0.1,0.5-0.1S13.3,2.5,13.5,2.6z"/>
	<path fill="#7F7F7F" d="M8.5,8.6V0c0-0.3-0.2-0.5-0.5-0.5S7.5-0.3,7.5,0v8.6c0.2,0,0.3-0.1,0.5-0.1C8.2,8.5,8.3,8.5,8.5,8.6z"/>
	<path fill="#7F7F7F" d="M7.5,13.4V16c0,0.3,0.2,0.5,0.5,0.5s0.5-0.2,0.5-0.5v-2.6c-0.2,0-0.3,0.1-0.5,0.1
		C7.8,13.5,7.7,13.5,7.5,13.4z"/>
	<path fill="#7F7F7F" d="M2.5,9.4V16c0,0.3,0.2,0.5,0.5,0.5s0.5-0.2,0.5-0.5V9.4C3.3,9.5,3.2,9.5,3,9.5S2.7,9.5,2.5,9.4z"/>
	<path fill="#7F7F7F" d="M3.5,4.6V0c0-0.3-0.2-0.5-0.5-0.5S2.5-0.3,2.5,0v4.6c0.2,0,0.3-0.1,0.5-0.1S3.3,4.5,3.5,4.6z"/>
	<path fill="#7F7F7F" d="M13.5,2.6c-0.2,0-0.3-0.1-0.5-0.1s-0.3,0-0.5,0.1c-1.1,0.2-2,1.2-2,2.4s0.9,2.2,2,2.4
		c0.2,0,0.3,0.1,0.5,0.1s0.3,0,0.5-0.1c1.1-0.2,2-1.2,2-2.4S14.6,2.8,13.5,2.6z M13.5,6.4c-0.2,0.1-0.3,0.1-0.5,0.1s-0.3,0-0.5-0.1
		c-0.6-0.2-1-0.8-1-1.4s0.4-1.2,1-1.4c0.2-0.1,0.3-0.1,0.5-0.1s0.3,0,0.5,0.1c0.6,0.2,1,0.8,1,1.4S14.1,6.2,13.5,6.4z"/>
	<path fill="#7F7F7F" d="M8.5,8.6C8.3,8.5,8.2,8.5,8,8.5c-0.2,0-0.3,0-0.5,0.1c-1.1,0.2-2,1.2-2,2.4s0.9,2.2,2,2.4
		c0.2,0,0.3,0.1,0.5,0.1c0.2,0,0.3,0,0.5-0.1c1.1-0.2,2-1.2,2-2.4S9.6,8.8,8.5,8.6z M8.5,12.4c-0.2,0.1-0.3,0.1-0.5,0.1
		s-0.3,0-0.5-0.1c-0.6-0.2-1-0.8-1-1.4s0.4-1.2,1-1.4C7.7,9.5,7.8,9.5,8,9.5s0.3,0,0.5,0.1c0.6,0.2,1,0.8,1,1.4S9.1,12.2,8.5,12.4z"
		/>
	<path fill="#7F7F7F" d="M3.5,4.6C3.3,4.5,3.2,4.5,3,4.5s-0.3,0-0.5,0.1c-1.1,0.2-2,1.2-2,2.4c0,1.2,0.9,2.2,2,2.4
		c0.2,0,0.3,0.1,0.5,0.1s0.3,0,0.5-0.1c1.1-0.2,2-1.2,2-2.4C5.5,5.8,4.6,4.8,3.5,4.6z M3.5,8.4C3.3,8.5,3.2,8.5,3,8.5
		s-0.3,0-0.5-0.1c-0.6-0.2-1-0.8-1-1.4s0.4-1.2,1-1.4C2.7,5.5,2.8,5.5,3,5.5s0.3,0,0.5,0.1c0.6,0.2,1,0.8,1,1.4S4.1,8.2,3.5,8.4z"/>
</g>
</svg>
